<svg width="80" height="80" viewBox="0 0 80 80" version="1.1" xmlns="http://www.w3.org/2000/svg" xmlns:xlink="http://www.w3.org/1999/xlink">
<g id="Canvas" fill="none">
<g id="envelope">
<g id="Group">
<g id="Group_2">
<g id="Vector">
<path d="M 75 -1.16348e-06L 68.3333 -1.16348e-06L 68.3333 3.33328L 75 3.33328C 75.9205 3.33328 76.6667 4.07953 76.6667 5L 76.6667 51.6667C 76.6667 52.5872 75.9205 53.3334 75 53.3334L 5 53.3334C 4.07953 53.3334 3.33328 52.5872 3.33328 51.6667L 3.33328 5C 3.33328 4.07953 4.07953 3.33328 5 3.33328L 11.6667 3.33328L 11.6667 -1.16348e-06L 5 -1.16348e-06C 2.23859 -1.16348e-06 0 2.23859 0 5L 0 51.6667C 0 54.4281 2.23859 56.6667 5 56.6667L 75 56.6667C 77.7614 56.6667 80 54.4281 80 51.6667L 80 5C 80 2.23859 77.7614 -1.16348e-06 75 -1.16348e-06Z" transform="translate(0 23.3333)" fill="white"/>
</g>
</g>
</g>
<g id="Group_3">
<g id="Group_4">
<g id="Vector_2">
<path d="M 73.3333 6.10352e-07L 37.685 27.545L 2.03672 6.10352e-07L -2.38419e-09 2.63672L 36.6667 30.97C 36.9577 31.1967 37.3162 31.3194 37.685 31.3183C 38.0539 31.3194 38.4125 31.1967 38.7033 30.97L 75.37 2.63672L 73.3333 6.10352e-07Z" transform="translate(2.315 25.3483)" fill="white"/>
</g>
</g>
</g>
<g id="Group_5">
<g id="Group_6">
<g id="Vector_3">
<path d="M 30.6419 2.21252e-06L 0 2.21252e-06L 0 3.33328L 30.6419 3.33328L 30.6419 2.21252e-06Z" transform="matrix(0.7071 -0.7071 0.7071 0.7071 8.82191 68.8217)" fill="white"/>
</g>
</g>
</g>
<g id="Group_7">
<g id="Group_8">
<g id="Vector_4">
<path d="M 3.33328 0L 2.21252e-06 0L 2.21252e-06 30.6419L 3.33328 30.6419L 3.33328 0Z" transform="matrix(0.7071 -0.7071 0.7071 0.7071 47.1543 49.5125)" fill="white"/>
</g>
</g>
</g>
<g id="Group_9">
<g id="Group_10">
<g id="Vector_5">
<path d="M 5 2.86102e-08C 2.23859 2.86102e-08 0 2.23859 0 5L 0 25L 3.33328 25L 3.33328 5C 3.33328 4.07953 4.07953 3.33328 5 3.33328L 8.33328 3.33328L 8.33328 2.86102e-08L 5 2.86102e-08Z" transform="translate(15 3.33328)" fill="white"/>
</g>
</g>
</g>
<g id="Group_11">
<g id="Group_12">
<g id="Vector_6">
<path d="M 3.33328 2.86102e-08L -1.2207e-06 2.86102e-08L -1.2207e-06 3.33328L 3.33328 3.33328C 4.25375 3.33328 5 4.07953 5 5L 5 25L 8.33328 25L 8.33328 5C 8.33328 2.23859 6.09469 2.86102e-08 3.33328 2.86102e-08Z" transform="translate(56.6667 3.33328)" fill="white"/>
</g>
</g>
</g>
<g id="Group_13">
<g id="Group_14">
<g id="Vector_7">
<path d="M 3.33328 0L 0 0L 0 3.33328L 3.33328 3.33328L 3.33328 0Z" transform="translate(28.3333 6.66672)" fill="white"/>
</g>
</g>
</g>
<g id="Group_15">
<g id="Group_16">
<g id="Vector_8">
<path d="M 3.33328 0L 0 0L 0 3.33328L 3.33328 3.33328L 3.33328 0Z" transform="translate(48.3333 6.66672)" fill="white"/>
</g>
</g>
</g>
<g id="Group_17">
<g id="Group_18">
<g id="Vector_9">
<path d="M 31.6666 0L 5 0C 2.23859 0 1.16348e-06 2.23859 1.16348e-06 5L 1.16348e-06 31.6667L 3.33328 31.6667L 3.33328 5C 3.33328 4.07953 4.07953 3.33328 5 3.33328L 31.6667 3.33328C 32.587 3.33328 33.3333 4.07953 33.3333 5L 33.3333 31.6667L 36.6666 31.6667L 36.6666 5C 36.6666 2.23859 34.428 0 31.6666 0Z" transform="translate(21.6667 0)" fill="white"/>
</g>
</g>
</g>
<g id="SVGCleanerId 0">
<g id="Group_19">
<g id="Vector_10">
<path d="M 21.6669 6.66672C 18.9055 6.66672 16.6669 4.42812 16.6669 1.66672C 16.6669 0.74625 15.9206 5.72205e-08 15.0002 5.72205e-08L 8.33344 5.72205e-08C 7.41297 5.72205e-08 6.66672 0.74625 6.66672 1.66672C 6.66672 4.42812 4.42812 6.66672 1.66672 6.66672C 0.746249 6.66672 1.14441e-07 7.41297 1.14441e-07 8.33344L 1.14441e-07 26.6667L 3.33328 26.6667L 3.33328 9.83344C 6.60422 9.16047 9.16031 6.60437 9.83328 3.33344L 13.5 3.33344C 14.173 6.60437 16.7291 9.16047 20 9.83344L 20 26.6667L 23.3333 26.6667L 23.3333 8.33344C 23.3336 7.41297 22.5873 6.66672 21.6669 6.66672Z" transform="translate(28.3331 6.66656)" fill="white"/>
</g>
</g>
</g>
<g id="Group_20">
<g id="Group_21">
<g id="Vector_11">
<path d="M 21.6669 6.66672C 18.9055 6.66672 16.6669 4.42812 16.6669 1.66672C 16.6669 0.74625 15.9206 5.72205e-08 15.0002 5.72205e-08L 8.33344 5.72205e-08C 7.41297 5.72205e-08 6.66672 0.74625 6.66672 1.66672C 6.66672 4.42812 4.42812 6.66672 1.66672 6.66672C 0.746249 6.66672 1.14441e-07 7.41297 1.14441e-07 8.33344L 1.14441e-07 26.6667L 3.33328 26.6667L 3.33328 9.83344C 6.60422 9.16047 9.16031 6.60437 9.83328 3.33344L 13.5 3.33344C 14.173 6.60437 16.7291 9.16047 20 9.83344L 20 26.6667L 23.3333 26.6667L 23.3333 8.33344C 23.3336 7.41297 22.5873 6.66672 21.6669 6.66672Z" transform="translate(28.3331 6.66656)" fill="white"/>
</g>
</g>
</g>
<g id="Group_22">
<g id="Group_23">
<g id="Vector_12">
<path d="M 11.6667 1.16348e-06C 5.22344 1.16348e-06 -1.16348e-06 5.22328 -1.16348e-06 11.6667L 3.33328 11.6667C 3.33344 7.06422 7.06437 3.33328 11.6667 3.33328C 16.2691 3.33328 20 7.06422 20 11.6666L 23.3333 11.6666C 23.3334 5.22328 18.11 1.16348e-06 11.6667 1.16348e-06Z" transform="translate(28.3333 21.6667)" fill="white"/>
</g>
</g>
</g>
</g>
</g>
</svg>

