<svg width="80" height="80" viewBox="0 0 80 80" version="1.1" xmlns="http://www.w3.org/2000/svg" xmlns:xlink="http://www.w3.org/1999/xlink">
<g id="Canvas" fill="none">
<g id="safebox">
<g id="Group">
<g id="Group_2">
<g id="Vector">
<path d="M 71.6666 0L 8.33327 0C 3.73327 0.00546875 0.00546874 3.73328 0 8.33328L 0 71.6666C 0 72.587 0.746249 73.3333 1.66672 73.3333L 6.66671 73.3333L 6.66671 78.3333C 6.66671 79.2538 7.41295 80 8.33342 80L 21.6667 80C 22.5871 80 23.3334 79.2538 23.3334 78.3333L 23.3334 73.3333L 56.6666 73.3333L 56.6666 78.3333C 56.6666 79.2538 57.4129 80 58.3333 80L 71.6666 80C 72.5871 80 73.3333 79.2538 73.3333 78.3333L 73.3333 73.3333L 78.3333 73.3333C 79.2538 73.3333 80 72.587 80 71.6666L 80 8.33328C 79.9944 3.73328 76.2666 0.00546875 71.6666 0ZM 76.6666 70L 71.6666 70C 70.7461 70 69.9999 70.7462 69.9999 71.6667L 69.9999 76.6667L 59.9999 76.6667L 59.9999 71.6667C 59.9999 70.7462 59.2536 70 58.3332 70L 21.6667 70C 20.7462 70 20 70.7462 20 71.6667L 20 76.6667L 9.99998 76.6667L 9.99998 71.6667C 9.99998 70.7462 9.25373 70 8.33327 70L 3.33327 70L 3.33327 8.33328C 3.33327 5.57188 5.57186 3.33328 8.33327 3.33328L 71.6664 3.33328C 74.4278 3.33328 76.6664 5.57188 76.6664 8.33328L 76.6664 70L 76.6666 70Z" fill="white"/>
</g>
</g>
</g>
<g id="Group_3">
<g id="Group_4">
<g id="Vector_2">
<path d="M 63.3333 8.33344L 63.3333 5C 63.3333 2.23859 61.0947 2.86102e-08 58.3333 2.86102e-08L 4.99999 2.86102e-08C 2.23859 2.86102e-08 2.86102e-08 2.23859 2.86102e-08 5L 2.86102e-08 51.6667C 2.86102e-08 54.4281 2.23859 56.6667 4.99999 56.6667L 58.3332 56.6667C 61.0946 56.6667 63.3332 54.4281 63.3332 51.6667L 63.3332 48.3334L 59.9999 48.3334L 59.9999 51.6667C 59.9999 52.5872 59.2536 53.3334 58.3332 53.3334L 4.99999 53.3334C 4.07952 53.3334 3.33327 52.5872 3.33327 51.6667L 3.33327 5C 3.33327 4.07953 4.07952 3.33328 4.99999 3.33328L 58.3332 3.33328C 59.2536 3.33328 59.9999 4.07953 59.9999 5L 59.9999 8.33328L 63.3333 8.33328L 63.3333 8.33344Z" transform="translate(8.33325 8.33328)" fill="white"/>
</g>
</g>
</g>
<g id="Group_5">
<g id="Group_6">
<g id="Vector_3">
<path d="M 6.66671 0L 0 0L 0 3.33328L 6.66671 3.33328L 6.66671 0Z" transform="translate(15 70)" fill="white"/>
</g>
</g>
</g>
<g id="Group_7">
<g id="Group_8">
<g id="Vector_4">
<path d="M 6.66671 0L 0 0L 0 3.33328L 6.66671 3.33328L 6.66671 0Z" transform="translate(58.3332 70)" fill="white"/>
</g>
</g>
</g>
<g id="Group_9">
<g id="Group_10">
<g id="Vector_5">
<path d="M 26.6665 0L 3.33327 0C 1.49234 0 -1.2207e-06 1.49234 -1.2207e-06 3.33328L -1.2207e-06 30C -1.2207e-06 31.8409 1.49234 33.3333 3.33327 33.3333L 26.6665 33.3333C 28.5074 33.3333 29.9998 31.8409 29.9998 30L 29.9998 3.33328C 29.9999 1.49234 28.5074 0 26.6665 0ZM 26.6665 30L 3.33327 30L 3.33327 3.33328L 26.6665 3.33328L 26.6665 30Z" transform="translate(41.6667 20)" fill="white"/>
</g>
</g>
</g>
<g id="Group_11">
<g id="Group_12">
<g id="Vector_6">
<path d="M 26.6667 0L 0 0L 0 3.33328L 26.6667 3.33328L 26.6667 0Z" transform="translate(43.3332 30)" fill="white"/>
</g>
</g>
</g>
<g id="Group_13">
<g id="Group_14">
<g id="Vector_7">
<path d="M 3.33327 0L 0 0L 0 3.33328L 3.33327 3.33328L 3.33327 0Z" transform="translate(48.3332 36.6667)" fill="white"/>
</g>
</g>
</g>
<g id="Group_15">
<g id="Group_16">
<g id="Vector_8">
<path d="M 3.33328 0L 0 0L 0 3.33328L 3.33328 3.33328L 3.33328 0Z" transform="translate(54.9999 36.6667)" fill="white"/>
</g>
</g>
</g>
<g id="Group_17">
<g id="Group_18">
<g id="Vector_9">
<path d="M 3.33327 0L 0 0L 0 3.33328L 3.33327 3.33328L 3.33327 0Z" transform="translate(61.6666 36.6667)" fill="white"/>
</g>
</g>
</g>
<g id="Group_19">
<g id="Group_20">
<g id="Vector_10">
<path d="M 3.33327 0L 0 0L 0 3.33328L 3.33327 3.33328L 3.33327 0Z" transform="translate(48.3332 43.3333)" fill="white"/>
</g>
</g>
</g>
<g id="Group_21">
<g id="Group_22">
<g id="Vector_11">
<path d="M 3.33328 0L 0 0L 0 3.33328L 3.33328 3.33328L 3.33328 0Z" transform="translate(54.9999 43.3333)" fill="white"/>
</g>
</g>
</g>
<g id="Group_23">
<g id="Group_24">
<g id="Vector_12">
<path d="M 3.33327 0L 0 0L 0 3.33328L 3.33327 3.33328L 3.33327 0Z" transform="translate(61.6666 43.3333)" fill="white"/>
</g>
</g>
</g>
<g id="Group_25">
<g id="Group_26">
<g id="Vector_13">
<path d="M 1.66672 0C 0.746249 0 0 0.74625 0 1.66672L 0 8.33344L 3.33327 8.33344L 3.33327 3.33344L 8.33326 3.33344L 8.33326 0L 1.66672 0Z" transform="translate(15 15)" fill="white"/>
</g>
</g>
</g>
<g id="Group_27">
<g id="Group_28">
<g id="Vector_14">
<path d="M 3.33328 5L 3.33328 0L 0 0L 0 6.66672C 0 7.58719 0.746249 8.33344 1.66672 8.33344L 8.33342 8.33344L 8.33342 5L 3.33328 5Z" transform="translate(15 50)" fill="white"/>
</g>
</g>
</g>
</g>
</g>
</svg>

