<svg width="80" height="80" viewBox="0 0 80 80" version="1.1" xmlns="http://www.w3.org/2000/svg" xmlns:xlink="http://www.w3.org/1999/xlink">
<g id="Canvas" fill="none">
<g id="financial">
<g id="Group">
<g id="Group_2">
<g id="Vector">
<path d="M 66.6667 0L 0 0L 0 3.33328L 66.6667 3.33328L 66.6667 0Z" transform="translate(6.66672 43.3333)" fill="white"/>
</g>
</g>
</g>
<g id="Group_3">
<g id="Group_4">
<g id="Vector_2">
<path d="M 25.0002 -1.2207e-06L 1.66672 -1.2207e-06C 0.746249 -1.2207e-06 5.72205e-08 0.746252 5.72205e-08 1.66672L 5.72205e-08 15C 5.72205e-08 15.9205 0.746249 16.6667 1.66672 16.6667L 25 16.6667C 25.9205 16.6667 26.6667 15.9205 26.6667 15L 26.6667 1.66672C 26.6667 0.746096 25.9206 -1.2207e-06 25.0002 -1.2207e-06ZM 23.3334 13.3333L 3.33344 13.3333L 3.33344 3.33328L 23.3334 3.33328L 23.3334 13.3333Z" transform="translate(26.6666 56.6667)" fill="white"/>
</g>
</g>
</g>
<g id="Group_5">
<g id="Group_6">
<g id="Vector_3">
<path d="M 35.0002 0L 1.66672 0C 0.746249 0 5.72205e-08 0.746249 5.72205e-08 1.66672L 5.72205e-08 6.66672C 5.72205e-08 8.50766 1.49234 10 3.33328 10L 33.3333 10C 35.1742 10 36.6666 8.50766 36.6666 6.66672L 36.6666 1.66672C 36.6667 0.746249 35.9206 0 35.0002 0ZM 33.3334 6.66672L 3.33344 6.66672L 3.33344 3.33344L 33.3334 3.33344L 33.3334 6.66672Z" transform="translate(21.6666 70)" fill="white"/>
</g>
</g>
</g>
<g id="Group_7">
<g id="Group_8">
<g id="Vector_4">
<path d="M 76.6667 43.3333L 76.6667 55C 76.6667 55.9205 75.9205 56.6667 75 56.6667L 5 56.6667C 4.07953 56.6667 3.33328 55.9205 3.33328 55L 3.33328 5C 3.33328 4.07953 4.07953 3.33328 5 3.33328L 20 3.33328L 20 0L 5 0C 2.23859 0 0 2.23859 0 5L 0 55C 0 57.7614 2.23859 60 5 60L 75 60C 77.7614 60 80 57.7614 80 55L 80 43.3333L 76.6667 43.3333Z" fill="white"/>
</g>
</g>
</g>
<g id="Group_9">
<g id="Group_10">
<g id="Vector_5">
<path d="M 43.3333 0L 0 0L 0 3.33328L 43.3333 3.33328L 43.3333 0Z" transform="translate(18.3333 76.6667)" fill="white"/>
</g>
</g>
</g>
<g id="Group_11">
<g id="Group_12">
<g id="Vector_6">
<path d="M 1.66672 2.86102e-08C 0.74625 2.86102e-08 2.86102e-08 0.74625 2.86102e-08 1.66672L 2.86102e-08 31.6667L 3.33328 31.6667L 3.33328 3.33344L 10 3.33344L 10 2.86102e-08L 1.66672 2.86102e-08Z" transform="translate(8.33328 8.33328)" fill="white"/>
</g>
</g>
</g>
<g id="Group_13">
<g id="Group_14">
<g id="Vector_7">
<path d="M 53.3333 0L 3.33328 0C 1.49235 0 -5.72205e-08 1.49234 -5.72205e-08 3.33328L -5.72205e-08 36.6666C -5.72205e-08 38.5075 1.49235 39.9998 3.33328 39.9998L 53.3333 39.9998C 55.1742 39.9998 56.6666 38.5075 56.6666 36.6666L 56.6666 3.33328C 56.6666 1.49234 55.1742 0 53.3333 0ZM 53.3333 36.6667L 3.33328 36.6667L 3.33328 3.33328L 53.3333 3.33328L 53.3333 36.6667Z" transform="translate(23.3334 0)" fill="white"/>
</g>
</g>
</g>
<g id="Group_15">
<g id="Group_16">
<g id="Vector_8">
<path d="M 3.33328 20L 3.33328 2.86102e-08L 1.16348e-06 2.86102e-08L 1.16348e-06 21.6667C 1.16348e-06 22.5872 0.74625 23.3334 1.66672 23.3334L 40 23.3334L 40 20.0002L 3.33328 20.0002L 3.33328 20Z" transform="translate(31.6667 8.33328)" fill="white"/>
</g>
</g>
</g>
<g id="Group_17">
<g id="Group_18">
<g id="Vector_9">
<path d="M 26.6666 3.33328C 26.2245 3.33344 25.8008 3.50906 25.4883 3.82156L 22.6433 6.66656L 19.0233 6.66656L 16.1783 3.82156C 15.8658 3.50891 15.4419 3.33328 15 3.33328L 9.02328 3.33328L 6.17828 0.488281C 5.86578 0.175781 5.44188 -2.86102e-08 5 -2.86102e-08L -5.72205e-08 -2.86102e-08L -5.72205e-08 3.33328L 4.31 3.33328L 7.155 6.17828C 7.4675 6.49094 7.8914 6.66656 8.33328 6.66656L 14.31 6.66656L 17.155 9.51156C 17.4675 9.82422 17.8914 9.99984 18.3333 9.99984L 23.3333 9.99984C 23.7753 9.99969 24.1991 9.82406 24.5116 9.51156L 27.3566 6.66656L 31.6666 6.66656L 31.6666 3.33328L 26.6666 3.33328Z" transform="translate(38.3334 11.6667)" fill="white"/>
</g>
</g>
</g>
<g id="Group_19">
<g id="Group_20">
<g id="Vector_10">
<path d="M 3.33328 0L 0 0L 0 8.33328L 3.33328 8.33328L 3.33328 0Z" transform="translate(45 16.6667)" fill="white"/>
</g>
</g>
</g>
<g id="Group_21">
<g id="Group_22">
<g id="Vector_11">
<path d="M 3.33328 0L 0 0L 0 5L 3.33328 5L 3.33328 0Z" transform="translate(55 20)" fill="white"/>
</g>
</g>
</g>
<g id="Group_23">
<g id="Group_24">
<g id="Vector_12">
<path d="M 3.33328 0L 0 0L 0 3.33328L 3.33328 3.33328L 3.33328 0Z" transform="translate(68.3333 6.66672)" fill="white"/>
</g>
</g>
</g>
<g id="Group_25">
<g id="Group_26">
<g id="Vector_13">
<path d="M 3.33328 0L 0 0L 0 3.33328L 3.33328 3.33328L 3.33328 0Z" transform="translate(61.6667 6.66672)" fill="white"/>
</g>
</g>
</g>
</g>
</g>
</svg>

