<svg width="74" height="80" viewBox="0 0 74 80" version="1.1" xmlns="http://www.w3.org/2000/svg" xmlns:xlink="http://www.w3.org/1999/xlink">
<g id="Canvas" fill="none">
<g id="calculator">
<g id="Group">
<g id="Group_2">
<g id="Vector">
<path d="M 16.6823 0L 0 0L 0 3.33328L 16.6823 3.33328L 16.6823 0Z" transform="translate(10.0094 10)" fill="white"/>
</g>
</g>
</g>
<g id="Group_3">
<g id="Group_4">
<g id="Vector_2">
<path d="M 3.3364 0L 0 0L 0 3.33328L 3.3364 3.33328L 3.3364 0Z" transform="translate(10.0094 16.6667)" fill="white"/>
</g>
</g>
</g>
<g id="Group_5">
<g id="Group_6">
<g id="Vector_3">
<path d="M 3.3364 0L 0 0L 0 3.33328L 3.3364 3.33328L 3.3364 0Z" transform="translate(16.6823 16.6667)" fill="white"/>
</g>
</g>
</g>
<g id="Group_7">
<g id="Group_8">
<g id="Vector_4">
<path d="M 62.9038 13.8217L 49.558 0.488281C 49.2453 0.175781 48.821 0 48.3787 0L 5.00468 0C 2.24069 0 2.8637e-08 2.23859 2.8637e-08 5L 2.8637e-08 75C 2.8637e-08 77.7614 2.24069 80 5.00468 80L 23.3551 80L 23.3551 76.6667L 5.00468 76.6667C 4.08335 76.6667 3.3364 75.9205 3.3364 75L 3.3364 5C 3.3364 4.07953 4.08335 3.33328 5.00468 3.33328L 47.6879 3.33328L 60.0561 15.69L 60.0561 18.3333L 63.3925 18.3333L 63.3925 15C 63.3925 14.558 63.2168 14.1342 62.9038 13.8217Z" fill="white"/>
</g>
</g>
</g>
<g id="Group_9">
<g id="Group_10">
<g id="Vector_5">
<path d="M 5.00468 11.6667C 4.08335 11.6667 3.3364 10.9205 3.3364 10L 3.3364 5.72205e-08L 0 5.72205e-08L 0 10C 0 12.7614 2.24069 15 5.00468 15L 8.34108 15L 8.34108 11.6667L 5.00468 11.6667Z" transform="translate(46.7104 1.66656)" fill="white"/>
</g>
</g>
</g>
<g id="Group_11">
<g id="Group_12">
<g id="Vector_6">
<path d="M 41.7057 -1.16348e-06L 5.00468 -1.16348e-06C 2.24069 -1.16348e-06 0 2.23859 0 5L 0 51.6667C 0 54.4281 2.24069 56.6667 5.00468 56.6667L 41.7057 56.6667C 44.4697 56.6667 46.7104 54.4281 46.7104 51.6667L 46.7104 5C 46.7104 2.23859 44.4697 -1.16348e-06 41.7057 -1.16348e-06ZM 43.3738 51.6667C 43.3738 52.5872 42.6269 53.3334 41.7056 53.3334L 5.00468 53.3334C 4.08335 53.3334 3.3364 52.5872 3.3364 51.6667L 3.3364 5C 3.3364 4.07953 4.08335 3.33328 5.00468 3.33328L 41.7057 3.33328C 42.627 3.33328 43.374 4.07953 43.374 5L 43.374 51.6667L 43.3738 51.6667Z" transform="translate(26.6917 23.3333)" fill="white"/>
</g>
</g>
</g>
<g id="Group_13">
<g id="Group_14">
<g id="Vector_7">
<path d="M 43.3738 0L 0 0L 0 3.33328L 43.3738 3.33328L 43.3738 0Z" transform="translate(28.36 41.6667)" fill="white"/>
</g>
</g>
</g>
<g id="Group_15">
<g id="Group_16">
<g id="Vector_8">
<path d="M 33.3646 0L 1.66828 0C 0.746947 0 5.7274e-08 0.746251 5.7274e-08 1.66672L 5.7274e-08 8.33344L 3.33656 8.33344L 3.33656 3.33344L 31.6964 3.33344L 31.6964 8.33344L 35.0327 8.33344L 35.0327 1.66672C 35.0329 0.746251 34.286 0 33.3646 0Z" transform="translate(33.3645 30)" fill="white"/>
</g>
</g>
</g>
<g id="Group_17">
<g id="Group_18">
<g id="Vector_9">
<path d="M 8.34124 1.2207e-06L 1.66828 1.2207e-06C 0.746947 1.2207e-06 5.7274e-08 0.74625 5.7274e-08 1.66672L 5.7274e-08 8.33344C 5.7274e-08 9.25391 0.746947 10.0002 1.66828 10.0002L 8.34124 10.0002C 9.26257 10.0002 10.0095 9.25391 10.0095 8.33344L 10.0095 1.66672C 10.0095 0.74625 9.26257 1.2207e-06 8.34124 1.2207e-06ZM 6.67296 6.66672L 3.33656 6.66672L 3.33656 3.33344L 6.67296 3.33344L 6.67296 6.66672Z" transform="translate(33.3645 48.3333)" fill="white"/>
</g>
</g>
</g>
<g id="Group_19">
<g id="Group_20">
<g id="Vector_10">
<path d="M 8.34124 1.2207e-06L 1.66828 1.2207e-06C 0.746946 1.2207e-06 -1.1073e-06 0.74625 -1.1073e-06 1.66672L -1.1073e-06 8.33344C -1.1073e-06 9.25391 0.746946 10.0002 1.66828 10.0002L 8.34124 10.0002C 9.26257 10.0002 10.0095 9.25391 10.0095 8.33344L 10.0095 1.66672C 10.0095 0.74625 9.26257 1.2207e-06 8.34124 1.2207e-06ZM 6.67311 6.66672L 3.33672 6.66672L 3.33672 3.33344L 6.67311 3.33344L 6.67311 6.66672Z" transform="translate(46.7102 48.3333)" fill="white"/>
</g>
</g>
</g>
<g id="Group_21">
<g id="Group_22">
<g id="Vector_11">
<path d="M 8.34124 -1.2207e-06L 1.66828 -1.2207e-06C 0.746947 -1.2207e-06 5.7274e-08 0.746252 5.7274e-08 1.66672L 5.7274e-08 8.33328C 5.7274e-08 9.25375 0.746947 10 1.66828 10L 8.34124 10C 9.26257 10 10.0095 9.25375 10.0095 8.33328L 10.0095 1.66656C 10.0095 0.746095 9.26257 -1.2207e-06 8.34124 -1.2207e-06ZM 6.67296 6.66656L 3.33656 6.66656L 3.33656 3.33328L 6.67296 3.33328L 6.67296 6.66656Z" transform="translate(33.3645 61.6667)" fill="white"/>
</g>
</g>
</g>
<g id="Group_23">
<g id="Group_24">
<g id="Vector_12">
<path d="M 8.34124 -1.2207e-06L 1.66828 -1.2207e-06C 0.746946 -1.2207e-06 -1.1073e-06 0.746252 -1.1073e-06 1.66672L -1.1073e-06 8.33328C -1.1073e-06 9.25375 0.746946 10 1.66828 10L 8.34124 10C 9.26257 10 10.0095 9.25375 10.0095 8.33328L 10.0095 1.66656C 10.0095 0.746095 9.26257 -1.2207e-06 8.34124 -1.2207e-06ZM 6.67311 6.66656L 3.33672 6.66656L 3.33672 3.33328L 6.67311 3.33328L 6.67311 6.66656Z" transform="translate(46.7102 61.6667)" fill="white"/>
</g>
</g>
</g>
<g id="Group_25">
<g id="Group_26">
<g id="Vector_13">
<path d="M 6.67296 0L 0 0L 0 3.33328L 6.67296 3.33328L 6.67296 0Z" transform="translate(60.0561 48.3333)" fill="white"/>
</g>
</g>
</g>
<g id="Group_27">
<g id="Group_28">
<g id="Vector_14">
<path d="M 6.67296 0L 0 0L 0 3.33328L 6.67296 3.33328L 6.67296 0Z" transform="translate(60.0561 55)" fill="white"/>
</g>
</g>
</g>
<g id="Group_29">
<g id="Group_30">
<g id="Vector_15">
<path d="M 6.67296 0L 0 0L 0 3.33328L 6.67296 3.33328L 6.67296 0Z" transform="translate(60.0561 61.6667)" fill="white"/>
</g>
</g>
</g>
<g id="Group_31">
<g id="Group_32">
<g id="Vector_16">
<path d="M 6.67296 0L 0 0L 0 3.33328L 6.67296 3.33328L 6.67296 0Z" transform="translate(60.0561 68.3333)" fill="white"/>
</g>
</g>
</g>
<g id="Group_33">
<g id="Group_34">
<g id="Vector_17">
<path d="M 10.0094 0L 0 0L 0 3.33328L 10.0094 3.33328L 10.0094 0Z" transform="translate(11.6776 36.6667)" fill="white"/>
</g>
</g>
</g>
<g id="Group_35">
<g id="Group_36">
<g id="Vector_18">
<path d="M 11.6775 3.33328L 11.6775 1.16348e-06L 3.3364 1.16348e-06C 1.49374 1.16348e-06 -5.7274e-08 1.49234 -5.7274e-08 3.33328L -5.7274e-08 40C -5.7274e-08 41.8409 1.49374 43.3333 3.3364 43.3333L 11.6775 43.3333L 11.6775 40L 3.3364 40L 3.3364 3.33328L 11.6775 3.33328Z" transform="translate(10.0095 26.6667)" fill="white"/>
</g>
</g>
</g>
</g>
</g>
</svg>

