<svg width="111" height="23" viewBox="0 0 111 23" version="1.1" xmlns="http://www.w3.org/2000/svg" xmlns:xlink="http://www.w3.org/1999/xlink">
<g id="Canvas" fill="none">
<g id="Group 6">
<g id="Polygon">
<path d="M 7 0L 13.0622 9.85714L 0.937822 9.85714L 7 0Z" transform="translate(14 0) scale(-1 1)" fill="#56CCF2"/>
</g>
<g id="Polygon_2">
<path d="M 7 0L 13.0622 9.85714L 0.937822 9.85714L 7 0Z" transform="translate(0 23) scale(1 -1)" fill="#56CCF2"/>
</g>
<g id="Supertime">
<path d="M 8.1543 10.752C 8.1543 10.127 7.93294 9.64518 7.49023 9.30664C 7.05404 8.9681 6.26302 8.6263 5.11719 8.28125C 3.97135 7.9362 3.0599 7.55208 2.38281 7.12891C 1.08724 6.3151 0.439453 5.25391 0.439453 3.94531C 0.439453 2.79948 0.904948 1.85547 1.83594 1.11328C 2.77344 0.371094 3.98763 0 5.47852 0C 6.4681 0 7.35026 0.182292 8.125 0.546875C 8.89974 0.911458 9.50846 1.43229 9.95117 2.10938C 10.3939 2.77995 10.6152 3.52539 10.6152 4.3457L 8.1543 4.3457C 8.1543 3.60352 7.91992 3.02409 7.45117 2.60742C 6.98893 2.18424 6.32487 1.97266 5.45898 1.97266C 4.65169 1.97266 4.02344 2.14518 3.57422 2.49023C 3.13151 2.83529 2.91016 3.31706 2.91016 3.93555C 2.91016 4.45638 3.15104 4.89258 3.63281 5.24414C 4.11458 5.58919 4.90885 5.92773 6.01562 6.25977C 7.1224 6.58529 8.01107 6.95964 8.68164 7.38281C 9.35221 7.79948 9.84375 8.28125 10.1562 8.82812C 10.4688 9.36849 10.625 10.0033 10.625 10.7324C 10.625 11.9173 10.1693 12.8613 9.25781 13.5645C 8.35286 14.2611 7.1224 14.6094 5.56641 14.6094C 4.53776 14.6094 3.59049 14.4206 2.72461 14.043C 1.86523 13.6589 1.19466 13.1315 0.712891 12.4609C 0.23763 11.7904 0 11.0091 0 10.1172L 2.4707 10.1172C 2.4707 10.9245 2.73763 11.5495 3.27148 11.9922C 3.80534 12.4349 4.57031 12.6562 5.56641 12.6562C 6.42578 12.6562 7.07031 12.4837 7.5 12.1387C 7.9362 11.7871 8.1543 11.3249 8.1543 10.752Z" transform="translate(21.1172 2.58594)" fill="#364559"/>
<path d="M 18.9648 13.3789C 18.2682 14.1992 17.2786 14.6094 15.9961 14.6094C 14.8503 14.6094 13.9811 14.2741 13.3887 13.6035C 12.8027 12.9329 12.5098 11.9629 12.5098 10.6934L 12.5098 3.84766L 14.8828 3.84766L 14.8828 10.6641C 14.8828 12.0052 15.4395 12.6758 16.5527 12.6758C 17.7051 12.6758 18.4831 12.2624 18.8867 11.4355L 18.8867 3.84766L 21.2598 3.84766L 21.2598 14.4141L 19.0234 14.4141L 18.9648 13.3789Z" transform="translate(21.1172 2.58594)" fill="#364559"/>
<path d="M 32.9297 9.23828C 32.9297 10.8724 32.5586 12.1777 31.8164 13.1543C 31.0742 14.1243 30.0781 14.6094 28.8281 14.6094C 27.6693 14.6094 26.7415 14.2285 26.0449 13.4668L 26.0449 18.4766L 23.6719 18.4766L 23.6719 3.84766L 25.8594 3.84766L 25.957 4.92188C 26.6536 4.07552 27.6009 3.65234 28.7988 3.65234C 30.0879 3.65234 31.097 4.13411 31.8262 5.09766C 32.5618 6.05469 32.9297 7.38607 32.9297 9.0918L 32.9297 9.23828ZM 30.5664 9.0332C 30.5664 7.97852 30.3548 7.14193 29.9316 6.52344C 29.515 5.90495 28.916 5.5957 28.1348 5.5957C 27.1647 5.5957 26.4681 5.99609 26.0449 6.79688L 26.0449 11.4844C 26.4746 12.3047 27.1777 12.7148 28.1543 12.7148C 28.9095 12.7148 29.4987 12.4121 29.9219 11.8066C 30.3516 11.1947 30.5664 10.2702 30.5664 9.0332Z" transform="translate(21.1172 2.58594)" fill="#364559"/>
<path d="M 39.5996 14.6094C 38.0957 14.6094 36.875 14.1374 35.9375 13.1934C 35.0065 12.2428 34.541 10.9798 34.541 9.4043L 34.541 9.11133C 34.541 8.05664 34.7428 7.11589 35.1465 6.28906C 35.5566 5.45573 36.1296 4.80794 36.8652 4.3457C 37.6009 3.88346 38.4212 3.65234 39.3262 3.65234C 40.765 3.65234 41.875 4.11133 42.6562 5.0293C 43.444 5.94727 43.8379 7.24609 43.8379 8.92578L 43.8379 9.88281L 36.9336 9.88281C 37.0052 10.7552 37.2949 11.4453 37.8027 11.9531C 38.3171 12.4609 38.9616 12.7148 39.7363 12.7148C 40.8236 12.7148 41.709 12.2754 42.3926 11.3965L 43.6719 12.6172C 43.2487 13.2487 42.6823 13.7402 41.9727 14.0918C 41.2695 14.4368 40.4785 14.6094 39.5996 14.6094ZM 39.3164 5.55664C 38.6654 5.55664 38.138 5.78451 37.7344 6.24023C 37.3372 6.69596 37.0833 7.33073 36.9727 8.14453L 41.4941 8.14453L 41.4941 7.96875C 41.4421 7.17448 41.2305 6.57552 40.8594 6.17188C 40.4883 5.76172 39.974 5.55664 39.3164 5.55664Z" transform="translate(21.1172 2.58594)" fill="#364559"/>
<path d="M 51.2207 6.01562C 50.9082 5.96354 50.5859 5.9375 50.2539 5.9375C 49.1667 5.9375 48.4342 6.35417 48.0566 7.1875L 48.0566 14.4141L 45.6836 14.4141L 45.6836 3.84766L 47.9492 3.84766L 48.0078 5.0293C 48.5807 4.11133 49.375 3.65234 50.3906 3.65234C 50.7292 3.65234 51.0091 3.69792 51.2305 3.78906L 51.2207 6.01562Z" transform="translate(21.1172 2.58594)" fill="#364559"/>
<path d="M 54.8438 1.14258L 54.8438 3.84766L 57.0312 3.84766L 57.0312 4.80469L 54.8438 4.80469L 54.8438 11.8457C 54.8438 12.4316 54.9479 12.8678 55.1562 13.1543C 55.3711 13.4408 55.7259 13.584 56.2207 13.584C 56.416 13.584 56.7318 13.5514 57.168 13.4863L 57.2168 14.4434C 56.9108 14.554 56.4941 14.6094 55.9668 14.6094C 55.166 14.6094 54.5833 14.3783 54.2188 13.916C 53.8542 13.4473 53.6719 12.7604 53.6719 11.8555L 53.6719 4.80469L 51.7285 4.80469L 51.7285 3.84766L 53.6719 3.84766L 53.6719 1.14258L 54.8438 1.14258Z" transform="translate(21.1172 2.58594)" fill="#364559"/>
<path d="M 60.7617 14.4141L 59.5898 14.4141L 59.5898 3.84766L 60.7617 3.84766L 60.7617 14.4141ZM 59.3848 0.791016C 59.3848 0.569661 59.4564 0.384115 59.5996 0.234375C 59.7428 0.078125 59.9382 0 60.1855 0C 60.4329 0 60.6283 0.078125 60.7715 0.234375C 60.9212 0.384115 60.9961 0.569661 60.9961 0.791016C 60.9961 1.01237 60.9212 1.19792 60.7715 1.34766C 60.6283 1.4974 60.4329 1.57227 60.1855 1.57227C 59.9382 1.57227 59.7428 1.4974 59.5996 1.34766C 59.4564 1.19792 59.3848 1.01237 59.3848 0.791016Z" transform="translate(21.1172 2.58594)" fill="#364559"/>
<path d="M 65.0098 3.84766L 65.0488 5.56641C 65.4395 4.92839 65.9277 4.44987 66.5137 4.13086C 67.0996 3.81185 67.7506 3.65234 68.4668 3.65234C 70.1335 3.65234 71.1914 4.33594 71.6406 5.70312C 72.0182 5.04557 72.5228 4.54102 73.1543 4.18945C 73.7858 3.83138 74.4824 3.65234 75.2441 3.65234C 77.5098 3.65234 78.6654 4.88932 78.7109 7.36328L 78.7109 14.4141L 77.5391 14.4141L 77.5391 7.45117C 77.5326 6.50716 77.3275 5.80729 76.9238 5.35156C 76.5267 4.89583 75.8756 4.66797 74.9707 4.66797C 74.1309 4.68099 73.4212 4.95443 72.8418 5.48828C 72.2624 6.01562 71.9401 6.66016 71.875 7.42188L 71.875 14.4141L 70.7031 14.4141L 70.7031 7.36328C 70.6966 6.45833 70.4818 5.78451 70.0586 5.3418C 69.6419 4.89258 68.9974 4.66797 68.125 4.66797C 67.3893 4.66797 66.7578 4.87956 66.2305 5.30273C 65.7031 5.7194 65.3125 6.34115 65.0586 7.16797L 65.0586 14.4141L 63.8867 14.4141L 63.8867 3.84766L 65.0098 3.84766Z" transform="translate(21.1172 2.58594)" fill="#364559"/>
<path d="M 85.7715 14.6094C 84.873 14.6094 84.0592 14.388 83.3301 13.9453C 82.6074 13.5026 82.0443 12.8874 81.6406 12.0996C 81.237 11.3053 81.0352 10.4167 81.0352 9.43359L 81.0352 9.01367C 81.0352 7.99805 81.2305 7.08333 81.6211 6.26953C 82.0182 5.45573 82.5684 4.81771 83.2715 4.35547C 83.9746 3.88672 84.7363 3.65234 85.5566 3.65234C 86.8392 3.65234 87.8548 4.0918 88.6035 4.9707C 89.3587 5.8431 89.7363 7.03776 89.7363 8.55469L 89.7363 9.20898L 82.1973 9.20898L 82.1973 9.43359C 82.1973 10.6315 82.5391 11.6309 83.2227 12.4316C 83.9128 13.2259 84.7786 13.623 85.8203 13.623C 86.4453 13.623 86.9954 13.5091 87.4707 13.2812C 87.9525 13.0534 88.3887 12.6888 88.7793 12.1875L 89.5117 12.7441C 88.6523 13.9876 87.4056 14.6094 85.7715 14.6094ZM 85.5566 4.64844C 84.6777 4.64844 83.9355 4.9707 83.3301 5.61523C 82.7311 6.25977 82.3665 7.12565 82.2363 8.21289L 88.5742 8.21289L 88.5742 8.08594C 88.5417 7.07031 88.252 6.24349 87.7051 5.60547C 87.1582 4.96745 86.4421 4.64844 85.5566 4.64844Z" transform="translate(21.1172 2.58594)" fill="#364559"/>
</g>
</g>
</g>
</svg>

